<svg width="120" height="120" viewBox="0 0 120 120" fill="none" xmlns="http://www.w3.org/2000/svg">
<circle cx="60" cy="60" r="60" fill="#56C8EA"/>
<g clip-path="url(#clip0_83_40)">
<path d="M95 89.0516C95 92.337 92.1507 95.0002 88.6363 95.0002H31.3637C27.8497 95.0002 25 92.337 25 89.0516V30.9656C25 27.6801 27.849 25.017 31.3637 25.017H88.637C92.1507 25.017 95 27.6805 95 30.9656V89.0516Z" fill="white"/>
<path d="M43.375 82.8659V36.375H60.2569C63.695 36.375 66.455 36.845 68.5306 37.7855C70.6064 38.7266 72.2339 40.1749 73.412 42.13C74.5869 44.0872 75.1753 46.132 75.1753 48.2666C75.1753 50.2553 74.6534 52.1254 73.6104 53.8803C72.5667 55.6352 70.9918 57.052 68.883 58.1306C71.6046 58.9545 73.6976 60.3609 75.1613 62.3489C76.625 64.3358 77.3551 66.6826 77.3551 69.3888C77.3551 71.5658 76.9095 73.5898 76.0202 75.4613C75.1308 77.3327 74.0301 78.7757 72.7208 79.7897C71.4111 80.8047 69.7681 81.5709 67.7945 82.0882C65.8187 82.6065 63.3999 82.8662 60.5355 82.8662H43.375V82.8659ZM49.3299 55.9092H59.0613C61.701 55.9092 63.5934 55.7304 64.7414 55.3706C66.2548 54.9058 67.3948 54.1333 68.1627 53.0553C68.9302 51.9773 69.3146 50.6249 69.3146 48.9967C69.3146 47.4528 68.9544 46.0942 68.2404 44.9216C67.5232 43.7474 66.4999 42.9445 65.1706 42.5112C63.8406 42.0747 61.5575 41.8612 58.3249 41.8612H49.3299V55.9092ZM49.3299 77.3807H60.5348C62.4577 77.3807 63.808 77.3061 64.5864 77.1591C65.9573 76.9047 67.1022 76.4815 68.0238 75.8897C68.9443 75.2975 69.7023 74.4354 70.2945 73.3053C70.8899 72.1741 71.1839 70.8685 71.1839 69.3891C71.1839 67.6587 70.7558 66.1502 69.8955 64.8685C69.0345 63.5931 67.8417 62.6919 66.3196 62.1735C64.795 61.6555 62.6008 61.3979 59.735 61.3979H49.3299V77.3828V77.3807Z" fill="#56C8EA"/>
</g>
<defs>
<clipPath id="clip0_83_40">
<rect width="70" height="70" fill="white" transform="translate(25 25)"/>
</clipPath>
</defs>
</svg>
